<?xml version="1.0" encoding="utf-8"?>
<!-- Generator: $$$/GeneralStr/196=Adobe Illustrator 27.6.0, SVG Export Plug-In . SVG Version: 6.00 Build 0)  -->
<svg version="1.1" id="Layer_1" xmlns="http://www.w3.org/2000/svg" xmlns:xlink="http://www.w3.org/1999/xlink" x="0px" y="0px"
	 viewBox="0 0 162 32" style="enable-background:new 0 0 162 32;" xml:space="preserve">
<style type="text/css">
	.st0{fill:#FFFFFF;}
</style>
<path class="st0" d="M15.1,0.8L9,31.7H6.9l-6.1-31H0V0h7.8v0.8H5.7L10,22.7l4.3-21.9h-2.5V0h4.8v0.8C16.6,0.8,15.1,0.8,15.1,0.8z"/>
<path class="st0" d="M16.4,21.3h4.8L18.8,9L16.4,21.3z M12.2,31h1.4l6.1-31h2.1l6.1,31h0.7v0.8H21V31h2.1l-1.8-9h-5l-1.8,9H17v0.8
	h-4.8V31L12.2,31z"/>
<path class="st0" d="M43.8,0.8v31.1h-1.5L31.8,2.3V31h2.1v0.8h-4.1V31h1.1V0.8h-2V0H36l6.8,18.8v-18h-2.1V0h4.7v0.8H43.8z"/>
<path class="st0" d="M47.1,31.7v-0.8h1.4V0.8h-1.4V0h7.7v0.8h-1.5V31h1.5v0.8L47.1,31.7L47.1,31.7z"/>
<path class="st0" d="M61.1,31.7V31h1.5V0.7h-0.1c-2.1,0-4.1,2.1-4.5,11.7h-0.7V0h15.6v12.4H72c-0.4-9.6-2.6-11.7-4.5-11.7h-0.1V31
	h1.5v0.8L61.1,31.7L61.1,31.7z"/>
<path class="st0" d="M86.2,0.8V0h4.4v0.8h-1.2L85.3,17v13.9h1.5v0.8H79V31h1.5V17.1L75.8,0.8h-1V0h8v0.8h-2.2l4.2,14.9l3.7-14.9
	C88.5,0.8,86.2,0.8,86.2,0.8z"/>
<path class="st0" d="M104.8,31.7V31h1.3V0.8h-1.3V0h13.8v9.5h-0.7c-0.4-6.7-2.4-8.7-5.9-8.7h-1.1V15h0.4c2.7,0,3.5-1.1,3.7-5.5h0.7
	v12H115c-0.3-4.8-1.1-5.8-3.5-5.8h-0.6V31h1.9v0.8L104.8,31.7L104.8,31.7z"/>
<path class="st0" d="M121.6,21.3h4.8L124,9L121.6,21.3z M117.4,31h1.4l6.1-31h2.1l6.1,31h0.8v0.8h-7.7V31h2.1l-1.8-9h-5l-1.8,9h2.5
	v0.8h-4.8L117.4,31L117.4,31z"/>
<path class="st0" d="M134.9,31.7V31h1.3V0.8h-1.3V0h7.5v0.8H141V31h1.3v0.8L134.9,31.7L134.9,31.7z"/>
<path class="st0" d="M150.9,0.8v13.6h0.7c2.4,0,4.1,0.2,4.1-5.7V7.2c0-5.7-1.7-6.4-3.8-6.4L150.9,0.8L150.9,0.8z M155.4,27.7v-7.8
	c0-4.1-1.2-4.9-3.7-4.9h-0.8v16h1.9v0.8h-8.1V31h1.3V0.8h-1.3V0h7.1c5.2,0,8.5,2.4,8.5,7.8c0,4.8-2.9,6.4-6.4,6.9l0,0
	c3.7,0.6,6.3,2.1,6.3,7.7v7.3c0,1,0.3,1.2,0.8,1.2c0.4,0,0.7-0.1,0.9-0.2v0.8c-0.3,0.2-1.1,0.5-2.2,0.5C157,32,155.4,31,155.4,27.7z
	"/>
</svg>
